<svg fill="#DB6574" height="64px" width="64px" version="1.1" id="Layer_1" xmlns="http://www.w3.org/2000/svg" xmlns:xlink="http://www.w3.org/1999/xlink" viewBox="0 0 506.508 506.508" xml:space="preserve"><g id="SVGRepo_bgCarrier" stroke-width="0"></g><g id="SVGRepo_tracerCarrier" stroke-linecap="round" stroke-linejoin="round"></g><g id="SVGRepo_iconCarrier"> <g transform="translate(1 1)"> <g> <path d="M493.028,28.591C481.35,16.015,466.979,8.829,452.607,8.829c-13.474,0-26.049,7.186-35.032,17.965 c-8.084-11.677-20.66-17.965-34.133-17.965c-14.372,0-27.846,7.186-39.523,19.761c-4.959,5.22-8.693,11.886-10.895,19.283 c-38.432,3.522-73.074,28.077-94.2,66.949c-22.456-42.218-60.182-67.368-101.502-67.368c-38.625,0-73.656,17.067-105.095,52.098 c-50.102,54.349-38.382,135.986,0.996,185.726c-3.409,2.7-6.741,5.754-9.978,9.193c-20.66,22.456-23.354,63.775,6.288,91.621 c14.372,13.474,76.351,79.046,77.249,79.944c1.797,1.797,3.593,2.695,6.288,2.695c2.695,0,4.491-0.898,6.288-2.695 c0.534-0.534,22.971-23.923,43.911-45.636c37.742,39.441,69.267,72.583,69.267,72.583c1.797,1.797,3.593,2.695,6.288,2.695 c2.695,0,5.389-0.898,6.288-3.593c1.797-1.796,152.702-159.888,185.937-192.225c54.76-53.049,56.542-123.212,34.074-171.674 c9.879-10.274,18.713-19.443,22.515-23.245C511.891,81.587,509.196,46.556,493.028,28.591z M113.07,448.071 c-16.168-17.965-59.284-62.877-70.961-73.656c-24.253-23.354-17.067-52.997-5.389-66.47 c10.779-11.677,22.456-17.965,34.133-17.965c0.533,0,1.061,0.013,1.584,0.039c16.206,0.804,27.328,13.884,32.549,27.807 c0.898,2.695,4.491,5.389,8.084,5.389c3.593,0,7.186-1.796,8.084-5.389c5.389-12.575,17.067-26.947,34.133-26.947 c12.575,0,23.354,5.389,34.133,17.067c5.795,6.686,10.257,17.356,10.433,29.261c-0.04,11.847-4.348,24.837-15.823,36.311 c-3.593,4.491-12.575,13.474-26.947,27.846c-1.145,1.145-1.921,2.472-2.336,3.865C139.418,421.188,122.375,438.767,113.07,448.071 z M419.371,288.184c-29.642,28.744-150.007,154.498-179.649,185.937c-11.677-11.677-35.93-37.726-63.775-66.47 c10.779-10.779,17.067-17.965,20.66-20.66c15.759-15.321,21.489-33.202,21.353-49.589c0.085-17.594-6.633-33.561-15.065-42.931 c-13.474-15.27-30.54-23.354-47.607-23.354c-16.168,0-31.439,8.982-42.218,23.354c-10.779-14.372-25.151-23.354-42.218-23.354 c-7.809,0-15.427,1.712-22.774,5.012C-2.718,216.909,16.124,143.498,46.6,111.229c27.846-31.439,58.386-46.709,91.621-46.709 c39.523,0,75.453,27.846,93.418,73.656c0.898,2.695,4.491,5.389,8.084,5.389s7.186-1.797,8.084-5.389 c16.089-41.117,47.301-67.994,83.011-72.682c0.229,6.061,1.46,12.234,3.833,18.231c2.975,7.854,7.91,14.987,14.658,21.216 c11.677,10.779,61.979,63.775,62.877,64.674c1.797,1.796,3.593,2.695,6.288,2.695c1.347,0,2.47-0.225,3.481-0.674 c1.01-0.449,1.909-1.123,2.807-2.021c0.442,0,13.062-13.048,27.052-27.587C469.657,185.119,465.987,243.361,419.371,288.184z M475.063,91.468c-4.439,4.439-14.802,15.021-25.883,26.432c-0.739,0.386-1.4,0.851-1.963,1.413 c-4.552,4.932-9.101,9.859-13.383,14.452c-5.955,6.185-11.382,11.86-15.361,16.088c-14.372-15.27-47.607-49.403-56.589-58.386 c-18.863-17.965-13.474-41.319-4.491-51.2c8.982-8.982,17.965-13.474,26.947-13.474c12.575,0,21.558,10.779,26.049,21.558 c0.898,2.695,4.491,5.389,8.084,5.389s6.288-1.796,8.084-5.389c3.593-10.779,12.575-21.558,26.049-21.558 c9.881,0,18.863,4.491,26.947,13.474C489.435,50.149,493.028,74.401,475.063,91.468z"></path> </g> </g> </g></svg>